PathFileType	4	(X/Y/Z)	C:\Users\Basilio\Documents\Thesis Gigler\squatting_fais\c3dfiles\054\SLS_back_pre5\markers_experimental.trc
DataRate	CameraRate	NumFrames	NumMarkers	Units	OrigDataRate	OrigDataStartFrame	OrigNumFrames
200.000000	200.000000	4	61	mm	200.000000	740	1480
Frame#	Time	FHD			LBHD			RBHD			C7			T10			CLAV			LSHO			LUUPA			LMUPA			LDUPA			LLEP			LMEP			LRAD			LUL			LRFIN			RSHO			RUPA1			RMUPA			RDUPA			RLEP			RMEP			RRAD			RUL			RUFIN			LASI			RASI			USACR			LSACR			RSACR			LTHI1			LTHI2			LTHI3			LTHI4			LLFC			LMFC			LTIB1			LTIB2			LTIB3			LTIB4			LLMAL			LMMAL			LHEE			LMT1			LMT2			LMT5			RTHI			RTHI2			RTHI3			RTHI4			RLFC			RMFC			RTIB1			RTIB2			RTIB3			RTIB4			RLMAL			RMMAL			RHEE			RMT1			RMT2			RMT5			
		X1	Y1	Z1	X2	Y2	Z2	X3	Y3	Z3	X4	Y4	Z4	X5	Y5	Z5	X6	Y6	Z6	X7	Y7	Z7	X8	Y8	Z8	X9	Y9	Z9	X10	Y10	Z10	X11	Y11	Z11	X12	Y12	Z12	X13	Y13	Z13	X14	Y14	Z14	X15	Y15	Z15	X16	Y16	Z16	X17	Y17	Z17	X18	Y18	Z18	X19	Y19	Z19	X20	Y20	Z20	X21	Y21	Z21	X22	Y22	Z22	X23	Y23	Z23	X24	Y24	Z24	X25	Y25	Z25	X26	Y26	Z26	X27	Y27	Z27	X28	Y28	Z28	X29	Y29	Z29	X30	Y30	Z30	X31	Y31	Z31	X32	Y32	Z32	X33	Y33	Z33	X34	Y34	Z34	X35	Y35	Z35	X36	Y36	Z36	X37	Y37	Z37	X38	Y38	Z38	X39	Y39	Z39	X40	Y40	Z40	X41	Y41	Z41	X42	Y42	Z42	X43	Y43	Z43	X44	Y44	Z44	X45	Y45	Z45	X46	Y46	Z46	X47	Y47	Z47	X48	Y48	Z48	X49	Y49	Z49	X50	Y50	Z50	X51	Y51	Z51	X52	Y52	Z52	X53	Y53	Z53	X54	Y54	Z54	X55	Y55	Z55	X56	Y56	Z56	X57	Y57	Z57	X58	Y58	Z58	X59	Y59	Z59	X60	Y60	Z60	X61	Y61	Z61	

741	3.7	29.15201950073243	1392.591552734375	-1111.790161132813	-140.6632232666016	1351.082885742188	-1176.074096679688	-150.6470642089844	1353.630004882813	-1035.818725585938	-198.9148712158204	1215.801513671875	-1083.636108398438	-376.8973999023438	952.9842529296877	-1053.674926757813	-83.19641113281251	1110.991455078125	-1101.23974609375	-131.367660522461	1203.865478515625	-1232.081909179688	-6.829489707946779	1079.695068359375	-1368.95361328125	29.06122589111329	1109.388305664063	-1353.69775390625	60.20114517211915	1065.222290039063	-1380.339111328125	120.620231628418	1063.524169921875	-1379.514282226563	118.7761535644532	996.723815917969	-1333.481079101563	365.5686950683594	1100.169677734375	-1270.80126953125	390.6542968750001	1057.687744140625	-1331.4228515625	458.0199584960939	1122.494506835938	-1283.649291992188	-111.0220336914063	1201.744873046875	-961.8510742187502	26.93004798889161	1083.0634765625	-823.5164794921877	63.54850387573244	1110.627319335938	-835.7082519531252	93.09686279296876	1062.9033203125	-810.4144287109377	139.02783203125	1054.240966796875	-811.0172119140627	134.1024169921875	996.3364868164065	-862.8220214843752	376.7718811035157	1129.611206054688	-957.0239257812502	394.5935058593751	1103.881103515625	-884.0290527343752	448.7393493652345	1171.319458007813	-955.7121582031252	-307.2633056640626	741.9617919921876	-1186.70556640625	-303.4269409179688	716.2777709960939	-933.423034667969	-427.8847961425782	884.950134277344	-1046.249877929688	-453.4740295410157	863.7236938476565	-1074.8232421875	-446.2208862304689	857.6318969726565	-1017.426513671875	-316.6751708984376	587.8478393554689	-1260.0634765625	-235.3009796142579	562.3320922851564	-1253.471313476563	-207.0535430908204	599.2531127929689	-1247.0341796875	-212.9676361083985	508.2806396484376	-1238.400390625	-113.1203842163086	419.118377685547	-1199.094970703125	-89.82339477539064	449.6906127929689	-1065.05224609375	-142.3462219238282	283.7955322265626	-1110.085205078125	-206.6785430908204	253.3267669677735	-1164.035522460938	-178.4056549072266	242.3661651611329	-1131.773803710938	-227.5577239990235	192.9983520507813	-1083.887817382813	-351.8276672363282	104.310905456543	-1107.237548828125	-317.4551086425782	133.474365234375	-1017.539123535156	-426.7506713867189	102.5157775878907	-1043.940185546875	-216.0208740234376	56.71404266357423	-1020.7841796875	-208.0086212158204	52.17833709716798	-1070.150390625	-259.9924926757813	36.33633422851563	-1120.909790039063	-443.2825317382814	456.5861816406251	-836.9160156250002	-411.5500793457032	396.9776306152345	-832.2734375000002	-378.5158081054688	391.7947998046876	-837.7037353515627	-451.4323120117189	324.5243225097657	-849.2871704101565	-477.8080444335939	282.8957824707032	-859.052917480469	-421.954803466797	241.1258544921876	-983.108581542969	-564.5742797851564	225.4772644042969	-897.399108886719	-635.6240844726564	304.8405761718751	-881.992370605469	-644.0245361328126	262.0006103515626	-898.3393554687502	-684.6095581054689	258.2642822265626	-939.857849121094	-846.4837646484377	345.3202514648438	-967.426208496094	-808.3572998046877	306.3910522460938	-1046.9267578125	-829.8164062500002	414.3819274902345	-1022.702697753906	-920.858337402344	218.8050079345704	-1079.14453125	-938.7366943359377	213.763656616211	-1033.87451171875	-958.6316528320315	265.6083679199219	-992.800964355469	
742	3.705	29.28024291992188	1392.14306640625	-1111.829467773438	-140.2565307617188	1350.813598632813	-1176.139282226563	-150.2665100097657	1353.26123046875	-1035.967163085938	-198.6641845703126	1215.42724609375	-1083.683715820313	-376.7589111328126	952.7276000976565	-1053.646728515625	-82.87755584716798	1110.671508789063	-1101.363647460938	-131.11572265625	1203.57470703125	-1232.126708984375	-6.605185508728029	1079.51171875	-1369.045288085938	29.44025230407716	1108.98046875	-1353.812866210938	60.67573928833009	1064.738159179688	-1380.349731445313	120.7581024169922	1063.285888671875	-1379.666015625	118.2872009277344	996.679626464844	-1334.763916015625	365.6125183105469	1099.953002929688	-1270.9677734375	390.715057373047	1057.523071289063	-1331.5146484375	458.0755004882814	1122.408569335938	-1283.680053710938	-110.9169387817383	1201.373779296875	-961.9384765625002	27.08136749267579	1082.874389648438	-823.5526123046877	64.04543304443361	1110.328002929688	-835.9485473632815	93.20092010498048	1062.700073242188	-810.5140380859377	139.222885131836	1054.0087890625	-811.085632324219	134.3634643554688	995.9476318359377	-862.861755371094	375.9682006835938	1129.235595703125	-956.367370605469	394.9379882812501	1103.568603515625	-884.250427246094	448.9745483398439	1171.109008789063	-955.921081542969	-307.2339172363282	741.7182006835939	-1186.642700195313	-303.3274841308594	716.0539550781251	-933.3264160156252	-427.7382812500001	884.666687011719	-1046.175170898438	-453.3860778808595	863.4884033203127	-1074.747680664063	-445.9959411621095	857.4250488281252	-1017.358032226563	-316.6158447265626	587.7786865234376	-1260.052734375	-235.2631988525391	562.2143554687501	-1253.477416992188	-207.0611419677735	599.1948852539064	-1246.999755859375	-212.8977355957032	508.1701660156251	-1238.468383789063	-113.0495986938477	419.0141906738282	-1199.117553710938	-89.70198822021486	449.6135253906251	-1065.087280273438	-142.2953796386719	283.7172851562501	-1110.098022460938	-206.6690063476563	253.2608184814454	-1164.139770507813	-178.3784942626953	242.3446197509766	-1131.810791015625	-227.4139556884766	192.9865264892579	-1084.020629882813	-351.8294982910157	104.311767578125	-1107.237182617188	-317.4807739257813	133.4827575683594	-1017.555725097656	-426.7507629394532	102.5138778686524	-1043.931030273438	-215.8693237304688	56.70294570922853	-1020.722595214844	-208.0998535156251	52.21699523925783	-1070.217529296875	-259.9917907714844	36.3310890197754	-1120.933715820313	-443.2109985351564	456.3090209960939	-836.9929809570315	-411.4034423828126	396.7489624023439	-832.2954711914065	-378.4481811523438	391.6024475097657	-837.7642211914065	-451.366912841797	324.3487243652344	-849.3463134765627	-477.7637023925782	282.6649780273438	-859.0668945312502	-421.926727294922	240.866928100586	-983.3038330078127	-564.4763793945314	225.1552276611329	-897.3885498046877	-635.3778076171876	304.5889587402344	-881.966491699219	-643.9588623046876	261.7930603027344	-898.261901855469	-684.3767700195314	258.0441284179688	-939.774841308594	-846.4432373046877	345.1804504394532	-967.1833496093752	-808.4102783203127	306.2251586914063	-1046.611450195313	-829.8570556640627	414.1406555175782	-1022.289245605469	-920.9429931640627	218.4839630126954	-1078.6767578125	-938.7967529296877	213.6051330566407	-1033.51416015625	-958.6076660156252	265.3971252441407	-992.3633422851565	
743	3.71	29.39144325256348	1391.60009765625	-1112.092651367188	-140.2137298583985	1350.518188476563	-1176.132080078125	-150.0607147216797	1353.046630859375	-1036.083251953125	-198.4583129882813	1215.206298828125	-1083.747802734375	-376.6815795898438	952.5020751953127	-1053.546264648438	-82.67810821533205	1110.41357421875	-1101.462890625	-130.9622650146485	1203.253173828125	-1232.183715820313	-6.489724636077883	1079.318115234375	-1369.206176757813	29.53095054626466	1108.703979492188	-1353.953002929688	60.70869064331056	1064.533447265625	-1380.4833984375	120.8618469238282	1063.093139648438	-1379.770385742188	117.7744140625	996.7083129882815	-1336.01806640625	365.6773681640626	1099.807495117188	-1271.069213867188	390.7834472656251	1057.395141601563	-1331.598510742188	458.1223144531251	1122.242797851563	-1283.773681640625	-110.7397842407227	1201.081420898438	-962.147155761719	27.28276634216309	1082.5556640625	-823.678405761719	64.37686920166017	1110.023193359375	-836.1412353515627	93.3866653442383	1062.376342773438	-810.5592041015627	139.4940643310547	1053.713989257813	-811.1766357421877	134.7851715087891	995.5398559570315	-863.1531982421877	376.2768249511719	1128.773681640625	-956.6179809570315	395.0679626464845	1103.153198242188	-884.4117431640627	449.2978515625001	1170.798217773438	-956.2507934570315	-307.1301269531251	741.4861450195314	-1186.638793945313	-303.3713073730469	715.7562255859376	-933.1567993164065	-427.6356506347657	884.4692993164065	-1046.109375	-453.0076904296876	863.0632934570315	-1074.752197265625	-445.9593811035157	857.285095214844	-1017.260681152344	-316.6794433593751	587.6871337890626	-1260.016967773438	-235.2585906982422	562.1834716796876	-1253.433349609375	-206.9626770019532	599.1063232421876	-1247.038330078125	-212.8407592773438	508.0730590820314	-1238.507202148438	-113.0201721191407	418.969940185547	-1199.158447265625	-89.61936187744142	449.4939575195314	-1065.186889648438	-142.2877044677735	283.7072143554688	-1110.128051757813	-206.6026916503907	253.2257537841797	-1164.193237304688	-178.3787384033203	242.3439331054688	-1131.8095703125	-227.4450836181641	193.0144500732422	-1084	-351.8293151855469	104.3148956298828	-1107.237060546875	-317.4784545898438	133.4921112060547	-1017.585571289063	-426.7790832519532	102.5175323486328	-1043.947998046875	-215.8187408447266	56.73604202270509	-1020.7275390625	-208.053695678711	52.20143508911134	-1070.214233398438	-259.9631958007813	36.35580444335938	-1120.952026367188	-443.0628356933595	456.075408935547	-837.0479736328127	-411.1832580566407	396.4285278320314	-832.3450317382815	-378.3347167968751	391.3989257812501	-837.8365478515627	-451.3050231933595	324.1181945800782	-849.4497070312502	-477.6951904296876	282.5075988769532	-859.1478271484377	-421.8821716308595	240.6492156982422	-983.434020996094	-564.3278198242189	224.9023742675782	-897.3619384765627	-635.2398681640626	304.3319091796876	-881.8621826171877	-643.8372802734376	261.5479736328126	-898.1732177734377	-684.3258056640626	257.7582092285157	-939.6705322265627	-846.4617919921877	344.8883056640626	-966.7103271484377	-808.4416503906252	306.0934143066407	-1046.437255859375	-829.786560058594	414.0156555175782	-1021.960571289063	-920.9940185546877	218.4011688232422	-1078.430786132813	-938.879089355469	213.4052124023438	-1033.0693359375	-958.590270996094	265.1650085449219	-991.9410400390627	
744	3.715	29.9083480834961	1391.576904296875	-1112.175170898438	-140.0034332275391	1350.18896484375	-1176.207397460938	-149.9078674316407	1352.781616210938	-1036.147338867188	-198.1057739257813	1214.868896484375	-1083.8759765625	-376.5340270996094	952.2722778320315	-1053.496704101563	-82.43560791015626	1110.043701171875	-1101.5322265625	-130.8007507324219	1202.897705078125	-1232.2421875	-6.207648754119875	1079.125	-1369.332275390625	29.66008186340333	1108.5	-1354.045166015625	61.24940872192384	1064.416748046875	-1380.81396484375	120.935417175293	1062.893432617188	-1379.931884765625	117.3704681396485	996.7530517578127	-1337.056396484375	365.8472290039063	1099.662719726563	-1271.210327148438	390.8603820800782	1057.225708007813	-1331.680908203125	458.1881713867189	1122.145263671875	-1283.859252929688	-110.5123672485352	1200.623901367188	-962.2979125976565	27.39178276062012	1082.29443359375	-823.716247558594	64.55110931396486	1109.720581054688	-836.2202148437502	93.67816162109376	1062.093627929688	-810.7231445312502	139.6744995117188	1053.468872070313	-811.3015136718752	134.8690032958985	995.0635986328127	-863.477966308594	376.7647705078126	1128.444091796875	-957.0225830078127	395.138641357422	1102.729370117188	-884.5581054687502	449.5523681640626	1170.370361328125	-956.5266113281252	-307.1302795410157	741.2921752929689	-1186.483276367188	-303.2573852539063	715.5659179687501	-933.152770996094	-427.2859802246095	884.2675781250002	-1046.16748046875	-452.8937377929689	862.874450683594	-1074.685424804688	-445.8593139648439	857.1768188476565	-1017.163024902344	-316.6319885253907	587.5389404296876	-1259.992797851563	-235.2375946044922	562.0411376953126	-1253.417846679688	-207.0076293945313	599.0009155273439	-1247.017700195313	-212.7790527343751	507.9613647460939	-1238.5556640625	-112.88330078125	418.8937988281251	-1199.303833007813	-89.52809906005861	449.382537841797	-1065.250244140625	-142.2697448730469	283.7180175781251	-1110.213989257813	-206.5382232666016	253.2305145263672	-1164.235473632813	-178.4038848876953	242.2773742675782	-1131.872802734375	-227.3829345703126	192.9810485839844	-1084.028442382813	-351.8247070312501	104.3077239990235	-1107.235961914063	-317.4604797363282	133.4999542236328	-1017.59765625	-426.7413330078126	102.5077133178711	-1043.958740234375	-215.8671569824219	56.7246551513672	-1020.745544433594	-208.0578308105469	52.23457336425783	-1070.21875	-259.9818725585938	36.31294250488282	-1120.953979492188	-442.9441223144532	455.7999877929689	-837.1472778320315	-410.9581909179689	396.1910400390626	-832.453308105469	-378.1978149414063	391.0860595703126	-837.9378662109377	-451.2148742675782	323.9662170410157	-849.5096435546877	-477.5405578613282	282.2932434082032	-859.270446777344	-421.8496093750001	240.5492095947266	-983.6447753906252	-564.3125000000001	224.6125183105469	-897.2149658203127	-635.1080932617189	304.0278320312501	-881.7817993164065	-643.7202758789064	261.2906188964844	-898.110778808594	-684.2077026367189	257.5615844726563	-939.5103759765627	-846.4276123046877	344.6761779785157	-966.4273071289065	-808.401550292969	305.9024658203126	-1046.145263671875	-829.8379516601565	413.8277282714845	-1021.515625	-920.945983886719	218.3146972656251	-1078.123291015625	-938.841735839844	213.2286224365235	-1032.662841796875	-958.5774536132815	264.9257507324219	-991.5762329101565	
